<svg width="80" height="80" viewBox="0 0 80 80" fill="none" xmlns="http://www.w3.org/2000/svg">
<path fill-rule="evenodd" clip-rule="evenodd" d="M12.5 60C12.5 59.337 12.7634 58.7011 13.2322 58.2322C13.7011 57.7634 14.337 57.5 15 57.5H65C65.663 57.5 66.2989 57.7634 66.7678 58.2322C67.2366 58.7011 67.5 59.337 67.5 60C67.5 60.663 67.2366 61.2989 66.7678 61.7678C66.2989 62.2366 65.663 62.5 65 62.5H15C14.337 62.5 13.7011 62.2366 13.2322 61.7678C12.7634 61.2989 12.5 60.663 12.5 60ZM12.5 40C12.5 39.337 12.7634 38.7011 13.2322 38.2322C13.7011 37.7634 14.337 37.5 15 37.5H65C65.663 37.5 66.2989 37.7634 66.7678 38.2322C67.2366 38.7011 67.5 39.337 67.5 40C67.5 40.663 67.2366 41.2989 66.7678 41.7678C66.2989 42.2366 65.663 42.5 65 42.5H15C14.337 42.5 13.7011 42.2366 13.2322 41.7678C12.7634 41.2989 12.5 40.663 12.5 40ZM12.5 20C12.5 19.337 12.7634 18.7011 13.2322 18.2322C13.7011 17.7634 14.337 17.5 15 17.5H65C65.663 17.5 66.2989 17.7634 66.7678 18.2322C67.2366 18.7011 67.5 19.337 67.5 20C67.5 20.663 67.2366 21.2989 66.7678 21.7678C66.2989 22.2366 65.663 22.5 65 22.5H15C14.337 22.5 13.7011 22.2366 13.2322 21.7678C12.7634 21.2989 12.5 20.663 12.5 20Z" fill="#090607"/>
</svg>
