<svg width="50" height="50" viewBox="0 0 50 50" fill="none" xmlns="http://www.w3.org/2000/svg">
<path fill-rule="evenodd" clip-rule="evenodd" d="M45.4058 32.906C41.4508 34.4405 37.1349 34.7918 32.9837 33.9172C28.8325 33.0426 25.0252 30.9799 22.0255 27.9801C19.0257 24.9804 16.9629 21.1731 16.0884 17.0219C15.2138 12.8707 15.5651 8.55483 17.0996 4.59977C12.3489 6.45117 8.39372 9.90327 5.917 14.36C3.44028 18.8168 2.59746 23.9985 3.53405 29.0104C4.47064 34.0224 7.12786 38.55 11.0469 41.8116C14.966 45.0731 19.9009 46.8639 24.9996 46.8748C29.4129 46.8759 33.7234 45.5425 37.3653 43.0496C41.0071 40.5566 43.8099 37.0207 45.4058 32.906Z" fill="#090607"/>
</svg>
