<svg width="50" height="50" viewBox="0 0 50 50" fill="none" xmlns="http://www.w3.org/2000/svg">
<g clip-path="url(#clip0_15_80)">
<path d="M10.9375 25C10.9375 21.2704 12.4191 17.6935 15.0563 15.0563C17.6935 12.4191 21.2704 10.9375 25 10.9375C28.7296 10.9375 32.3065 12.4191 34.9437 15.0563C37.5809 17.6935 39.0625 21.2704 39.0625 25C39.0625 28.7296 37.5809 32.3065 34.9437 34.9437C32.3065 37.5809 28.7296 39.0625 25 39.0625C21.2704 39.0625 17.6935 37.5809 15.0563 34.9437C12.4191 32.3065 10.9375 28.7296 10.9375 25Z" fill="#090607"/>
<path fill-rule="evenodd" clip-rule="evenodd" d="M25.6318 0.874851C25.5593 0.775417 25.4643 0.694519 25.3546 0.638745C25.2449 0.582971 25.1236 0.5539 25.0005 0.5539C24.8775 0.5539 24.7562 0.582971 24.6465 0.638745C24.5368 0.694519 24.4418 0.775417 24.3693 0.874851L21.5255 4.79673C21.4103 4.9571 21.2385 5.06785 21.0448 5.1067C20.8512 5.14555 20.65 5.1096 20.4818 5.0061L16.3505 2.4686C16.2454 2.404 16.1264 2.36525 16.0033 2.35552C15.8802 2.34578 15.7566 2.36535 15.6426 2.41261C15.5286 2.45987 15.4273 2.53348 15.3472 2.62741C15.2671 2.72134 15.2104 2.83291 15.1818 2.95298L14.0568 7.66548C14.0119 7.85734 13.8961 8.02514 13.7327 8.13525C13.5692 8.24536 13.3702 8.28964 13.1755 8.25923L8.38804 7.4936C8.26629 7.47434 8.1417 7.48415 8.02447 7.52225C7.90723 7.56036 7.80068 7.62566 7.71352 7.71282C7.62635 7.79999 7.56105 7.90654 7.52295 8.02378C7.48485 8.14101 7.47503 8.2656 7.49429 8.38735L8.25679 13.1749C8.28732 13.3691 8.24347 13.5677 8.13399 13.7311C8.02451 13.8944 7.85746 14.0105 7.66617 14.0561L2.95054 15.1811C2.83074 15.2101 2.71952 15.2671 2.62596 15.3474C2.53239 15.4276 2.45915 15.5289 2.41222 15.6429C2.36528 15.7569 2.34599 15.8804 2.35591 16.0032C2.36583 16.1261 2.40468 16.2449 2.46929 16.3499L5.00679 20.4811C5.10937 20.649 5.14479 20.8495 5.10598 21.0424C5.06716 21.2354 4.95696 21.4065 4.79742 21.5217L0.872418 24.3655C0.772375 24.4379 0.690929 24.533 0.634765 24.643C0.5786 24.753 0.549316 24.8748 0.549316 24.9983C0.549316 25.1218 0.5786 25.2435 0.634765 25.3535C0.690929 25.4636 0.772375 25.5587 0.872418 25.6311L4.79742 28.4749C4.95779 28.5901 5.06855 28.7619 5.10739 28.9555C5.14624 29.1492 5.1103 29.3504 5.00679 29.5186L2.46929 33.6499C2.40468 33.7548 2.36583 33.8736 2.35591 33.9965C2.34599 34.1194 2.36528 34.2428 2.41222 34.3568C2.45915 34.4708 2.53239 34.5721 2.62596 34.6523C2.71952 34.7326 2.83074 34.7896 2.95054 34.8186L7.66929 35.9436C7.86 35.9899 8.02632 36.1062 8.13517 36.2695C8.24402 36.4328 8.28744 36.631 8.25679 36.8249L7.49429 41.6124C7.47503 41.7341 7.48485 41.8587 7.52295 41.9759C7.56105 42.0932 7.62635 42.1997 7.71352 42.2869C7.80068 42.374 7.90723 42.4393 8.02447 42.4774C8.1417 42.5155 8.26629 42.5254 8.38804 42.5061L13.1755 41.7436C13.3698 41.7131 13.5684 41.7569 13.7318 41.8664C13.8951 41.9759 14.0112 42.1429 14.0568 42.3342L15.1818 47.0467C15.2104 47.1668 15.2671 47.2784 15.3472 47.3723C15.4273 47.4662 15.5286 47.5398 15.6426 47.5871C15.7566 47.6344 15.8802 47.6539 16.0033 47.6442C16.1264 47.6345 16.2454 47.5957 16.3505 47.5311L20.4818 44.9936C20.6497 44.891 20.8502 44.8556 21.0431 44.8944C21.236 44.9332 21.4072 45.0434 21.5224 45.203L24.3662 49.128C24.4386 49.228 24.5337 49.3095 24.6437 49.3656C24.7537 49.4218 24.8755 49.4511 24.999 49.4511C25.1225 49.4511 25.2442 49.4218 25.3542 49.3656C25.4642 49.3095 25.5594 49.228 25.6318 49.128L28.4755 45.203C28.5908 45.0426 28.7626 44.9318 28.9562 44.893C29.1499 44.8542 29.3511 44.8901 29.5193 44.9936L33.6505 47.5311C33.7557 47.5957 33.8747 47.6345 33.9978 47.6442C34.1208 47.6539 34.2445 47.6344 34.3585 47.5871C34.4725 47.5398 34.5737 47.4662 34.6538 47.3723C34.7339 47.2784 34.7906 47.1668 34.8193 47.0467L35.9443 42.3342C35.9892 42.1424 36.105 41.9746 36.2684 41.8645C36.4319 41.7543 36.6308 41.7101 36.8255 41.7405L41.613 42.5061C41.7348 42.5254 41.8594 42.5155 41.9766 42.4774C42.0938 42.4393 42.2004 42.374 42.2876 42.2869C42.3747 42.1997 42.44 42.0932 42.4781 41.9759C42.5162 41.8587 42.5261 41.7341 42.5068 41.6124L41.7443 36.8249C41.7138 36.6306 41.7576 36.432 41.8671 36.2686C41.9766 36.1053 42.1436 35.9892 42.3349 35.9436L47.0474 34.8186C47.1675 34.7899 47.2791 34.7332 47.373 34.6531C47.4669 34.573 47.5405 34.4718 47.5878 34.3578C47.635 34.2438 47.6546 34.1202 47.6449 33.9971C47.6351 33.874 47.5964 33.755 47.5318 33.6499L44.9943 29.5186C44.8917 29.3507 44.8563 29.1502 44.8951 28.9573C44.9339 28.7643 45.0441 28.5932 45.2037 28.478L49.1287 25.6342C49.2287 25.5618 49.3102 25.4667 49.3663 25.3567C49.4225 25.2467 49.4518 25.1249 49.4518 25.0014C49.4518 24.8779 49.4225 24.7562 49.3663 24.6462C49.3102 24.5361 49.2287 24.441 49.1287 24.3686L45.2037 21.5249C45.0433 21.4096 44.9325 21.2378 44.8937 21.0442C44.8548 20.8505 44.8908 20.6493 44.9943 20.4811L47.5318 16.3499C47.5964 16.2447 47.6351 16.1257 47.6449 16.0026C47.6546 15.8795 47.635 15.7559 47.5878 15.6419C47.5405 15.5279 47.4669 15.4266 47.373 15.3466C47.2791 15.2665 47.1675 15.2098 47.0474 15.1811L42.3349 14.0561C42.1431 14.0112 41.9753 13.8954 41.8651 13.732C41.755 13.5685 41.7108 13.3695 41.7412 13.1749L42.5068 8.38735C42.5261 8.2656 42.5162 8.14101 42.4781 8.02378C42.44 7.90654 42.3747 7.79999 42.2876 7.71282C42.2004 7.62566 42.0938 7.56036 41.9766 7.52225C41.8594 7.48415 41.7348 7.47434 41.613 7.4936L36.8255 8.2561C36.6313 8.28663 36.4327 8.24278 36.2693 8.1333C36.1059 8.02382 35.9899 7.85676 35.9443 7.66548L34.8193 2.95298C34.7906 2.83291 34.7339 2.72134 34.6538 2.62741C34.5737 2.53348 34.4725 2.45987 34.3585 2.41261C34.2445 2.36535 34.1208 2.34578 33.9978 2.35552C33.8747 2.36525 33.7557 2.404 33.6505 2.4686L29.5193 5.0061C29.3514 5.10868 29.1509 5.1441 28.958 5.10528C28.765 5.06647 28.5939 4.95627 28.4787 4.79673L25.6349 0.874851H25.6318ZM25.0005 7.81235C20.4421 7.81235 16.0704 9.62317 12.8471 12.8465C9.62386 16.0697 7.81304 20.4414 7.81304 24.9999C7.81304 29.5583 9.62386 33.93 12.8471 37.1532C16.0704 40.3765 20.4421 42.1873 25.0005 42.1873C29.559 42.1873 33.9307 40.3765 37.1539 37.1532C40.3772 33.93 42.188 29.5583 42.188 24.9999C42.188 20.4414 40.3772 16.0697 37.1539 12.8465C33.9307 9.62317 29.559 7.81235 25.0005 7.81235Z" fill="#090607"/>
</g>
<defs>
<clipPath id="clip0_15_80">
<rect width="50" height="50" fill="white"/>
</clipPath>
</defs>
</svg>
