<svg width="70" height="70" viewBox="0 0 70 70" fill="none" xmlns="http://www.w3.org/2000/svg">
<path fill-rule="evenodd" clip-rule="evenodd" d="M21.875 13.125C16.0734 13.125 10.5094 15.4297 6.40704 19.532C2.30468 23.6344 0 29.1984 0 35C0 40.8016 2.30468 46.3656 6.40704 50.468C10.5094 54.5703 16.0734 56.875 21.875 56.875H48.125C53.9266 56.875 59.4906 54.5703 63.593 50.468C67.6953 46.3656 70 40.8016 70 35C70 29.1984 67.6953 23.6344 63.593 19.532C59.4906 15.4297 53.9266 13.125 48.125 13.125H21.875ZM48.125 52.5C52.7663 52.5 57.2175 50.6563 60.4994 47.3744C63.7813 44.0925 65.625 39.6413 65.625 35C65.625 30.3587 63.7813 25.9075 60.4994 22.6256C57.2175 19.3437 52.7663 17.5 48.125 17.5C43.4837 17.5 39.0325 19.3437 35.7506 22.6256C32.4687 25.9075 30.625 30.3587 30.625 35C30.625 39.6413 32.4687 44.0925 35.7506 47.3744C39.0325 50.6563 43.4837 52.5 48.125 52.5Z" fill="#090607"/>
</svg>
